<?xml version="1.0" encoding="utf-8"?>
<svg viewBox="0 0 24 24"
     xmlns="http://www.w3.org/2000/svg">
  <defs>
    <style>.cls{fill:none;stroke:currentColor;stroke-miterlimit:10;stroke-width:1.91px;}</style>
  </defs>
  <rect class="cls" x="5.3" y="18.68" width="5.73" height="3.82"/>
  <rect class="cls" x="1.48" y="14.86" width="5.73" height="3.82"/>
  <rect class="cls" x="4.34" y="11.05" width="5.73" height="3.82"/>
  <rect class="cls" x="7.2" y="14.86" width="5.73" height="3.82"/>
  <rect class="cls" x="12.93" y="14.86" width="5.73" height="3.82"/>
  <rect class="cls" x="11.02" y="18.68" width="5.73" height="3.82"/>
  <rect class="cls" x="16.75" y="18.68" width="5.73" height="3.82"/>
  <path class="cls"
        d="M19.61,10.09l-4.14,1.66a1,1,0,0,1-1.11-.23h0a1,1,0,0,1-.22-1.1L15.8,6.27h0a3.82,3.82,0,0,1,3.81,3.82Z"/>
  <polyline class="cls" points="18.66 7.23 19.61 6.27 19.61 3.41 22.48 1.5"/>
  <line class="cls" x1="5.3" y1="22.5" x2="0.52" y2="22.5"/>
</svg>
